<?xml version="1.0" encoding="utf-8"?>
<!-- Generator: Adobe Illustrator 18.1.1, SVG Export Plug-In . SVG Version: 6.00 Build 0)  -->
<svg version="1.1" id="Layer_1" xmlns="http://www.w3.org/2000/svg" xmlns:xlink="http://www.w3.org/1999/xlink" x="0px" y="0px"
	 viewBox="0 0 125 30" enable-background="new 0 0 125 30" xml:space="preserve">
<g>
	<path fill="#80882B" d="M12.06861,0c1.4653,0,2.71652,0.19291,3.75366,0.57922c1.03666,0.38679,1.87996,0.93089,2.52992,1.63422
		c0.64899,0.70382,1.11959,1.53849,1.40985,2.50353c0.29026,0.966,0.4354,2.01427,0.4354,3.14529
		c0,1.98589-0.40068,3.58643-1.20252,4.79971c-0.80232,1.21472-2.08778,1.95943-3.85684,2.23413v0.08274
		c1.852,0.16549,3.12395,0.81398,3.81538,1.94548c0.69094,1.13149,1.03666,2.69019,1.03666,4.67607v2.52469
		c0,0.38679,0,0.78512,0,1.19884s0.01398,0.80821,0.04147,1.1796c0.02748,0.37332,0.06895,0.71007,0.1244,1.01411
		c0.05545,0.30404,0.12488,0.53881,0.20781,0.7043c0.10993,0.16549,0.22083,0.32328,0.33173,0.47531
		c0.10993,0.15202,0.29026,0.29634,0.53906,0.43489v0.41373h-8.21176c-0.19383-0.38679-0.33896-0.84092-0.4354-1.36626
		c-0.0974-0.52341-0.16635-1.04875-0.20781-1.57216c-0.04147-0.52341-0.06895-1.02758-0.08293-1.51058
		s-0.02073-0.87556-0.02073-1.1796v-1.98589c0-0.82745-0.04147-1.51636-0.1244-2.06863
		c-0.08293-0.55228-0.22806-0.98717-0.4354-1.30468c-0.20733-0.31559-0.47059-0.53688-0.78786-0.66196
		c-0.31823-0.12316-0.71216-0.18473-1.18227-0.18473H7.71417v11.83451H0V0H12.06861z M9.24842,12.49647
		c1.10561,0,1.92143-0.32377,2.44699-0.97226c0.52508-0.64801,0.78834-1.49615,0.78834-2.5449
		c0-1.24118-0.25603-2.12396-0.76761-2.64833C11.20408,5.80709,10.36849,5.5449,9.20695,5.5449H7.71417v6.95157H9.24842z"/>
	<path fill="#80882B" d="M34.09104,28.34509c-0.05593-0.41373-0.1109-0.85439-0.16587-1.32393h-0.08293
		c-0.41515,0.99294-1.07185,1.73765-1.97013,2.23412C30.97336,29.75176,29.94345,30,28.7824,30
		c-1.13405,0-2.09453-0.14432-2.88239-0.43297c-0.78834-0.29057-1.43107-0.72547-1.92866-1.30468
		c-0.49759-0.57922-0.85729-1.26812-1.0786-2.06863c-0.22132-0.80051-0.33173-1.68185-0.33173-2.64785
		c0-1.04875,0.10366-1.95895,0.311-2.73252c0.20733-0.77165,0.54581-1.44131,1.01641-2.00706
		c0.46963-0.56382,1.10561-1.04683,1.90745-1.44708c0.80184-0.40026,1.79703-0.73894,2.98653-1.01411l2.94459-0.7043
		c0.80136-0.19243,1.36839-0.4753,1.70012-0.84766c0.33221-0.37235,0.49808-0.90298,0.49808-1.59285
		c0-1.37925-0.63646-2.06911-1.90793-2.06911c-0.71939,0-1.24447,0.20061-1.5762,0.5999
		c-0.33173,0.40026-0.51158,1.19355-0.53906,2.37941h-6.4697c0-1.62749,0.29026-2.93073,0.87079-3.9102
		c0.58053-0.97899,1.29944-1.73813,2.15673-2.27598c0.85633-0.53833,1.78305-0.89625,2.77872-1.07617
		c0.99519-0.17896,1.92143-0.26892,2.77872-0.26892c1.29943,0,2.49472,0.10343,3.58731,0.3103
		c1.09211,0.20686,2.03233,0.57922,2.82019,1.11754c0.78834,0.53784,1.39587,1.26908,1.825,2.19323
		c0.42816,0.92415,0.64272,2.11722,0.64272,3.57922V24.7043c0,1.04875,0.04147,1.97242,0.1244,2.77293
		c0.08293,0.80051,0.27628,1.48942,0.58101,2.06863h-7.21657C34.24244,29.15908,34.14601,28.75882,34.09104,28.34509z
		 M33.38563,24.20782c0.35921-0.60616,0.53954-1.53175,0.53954-2.77293v-2.69019h-0.08293
		c-0.2218,0.30404-0.56028,0.4907-1.01641,0.55997c-0.45613,0.06735-0.96095,0.22707-1.51352,0.47531
		c-0.58101,0.27518-0.98217,0.64079-1.203,1.09686c-0.2218,0.45414-0.33173,1.05452-0.33173,1.79923
		c0,0.74471,0.16586,1.33932,0.49759,1.77999c0.33173,0.44067,0.77388,0.66196,1.3274,0.66196
		C32.43191,25.11802,33.02594,24.81398,33.38563,24.20782z"/>
	<path fill="#80882B" d="M62.66611,0v29.54586h-7.21706v-3.0635h-0.08293c-0.46867,1.2431-1.10513,2.13983-1.90745,2.69019
		C52.65683,29.72482,51.59269,30,50.26577,30c-2.48846,0-4.23052-0.97755-5.22571-2.9365s-1.49327-5.02245-1.49327-9.18666
		c0-2.12444,0.16587-3.90394,0.49808-5.339c0.33173-1.43409,0.79413-2.59253,1.38912-3.47579
		c0.59403-0.8823,1.32017-1.51684,2.17746-1.90362c0.85681-0.38582,1.79703-0.57922,2.82019-0.57922
		c1.05064,0,1.99713,0.22755,2.84092,0.68265c0.84379,0.45558,1.45903,1.26235,1.84476,2.42078h0.08293V0H62.66611z
		 M51.09509,21.35215c0.05497,0.80051,0.15911,1.44131,0.311,1.92431s0.36645,0.82168,0.64321,1.01411
		c0.2758,0.19243,0.63549,0.28865,1.07764,0.28865c0.41466,0,0.75989-0.09622,1.03762-0.28865
		c0.2758-0.19243,0.48988-0.53111,0.64224-1.01411c0.15237-0.483,0.25651-1.1238,0.31052-1.92431
		c0.05593-0.80051,0.08293-1.79346,0.08293-2.97883c0-1.21424-0.027-2.22065-0.08293-3.02117
		c-0.054-0.80003-0.15815-1.44131-0.31052-1.92431c-0.15236-0.48252-0.36644-0.82072-0.64224-1.01411
		c-0.27773-0.19243-0.62296-0.28961-1.03762-0.28961c-0.44215,0-0.80184,0.09718-1.07764,0.28961
		c-0.27676,0.19339-0.49133,0.53159-0.64321,1.01411c-0.15188,0.483-0.25603,1.12428-0.311,1.92431
		c-0.05545,0.80051-0.08293,1.80693-0.08293,3.02117C51.01216,19.55869,51.03965,20.55164,51.09509,21.35215z"/>
	<path fill="#80882B" d="M73.36633,0v5.5449h-7.46585V0H73.36633z M73.36633,7.15843v22.38743h-7.46585V7.15843H73.36633z"/>
	<path fill="#80882B" d="M87.50825,13.71745c-0.08293-0.56527-0.20734-1.02758-0.3732-1.38647
		c-0.30376-0.63406-0.85729-0.95157-1.65865-0.95157c-0.41467,0-0.76761,0.10343-1.05788,0.3103
		c-0.29026,0.20686-0.51785,0.57922-0.68371,1.11754c-0.16586,0.53784-0.28448,1.25561-0.35294,2.15138
		c-0.06944,0.89769-0.10319,2.03496-0.10319,3.41469s0.03375,2.517,0.10319,3.41373c0.06847,0.89673,0.18708,1.6068,0.35294,2.13021
		c0.16586,0.52534,0.39345,0.89095,0.68371,1.09686c0.29027,0.20782,0.64321,0.30981,1.05788,0.30981
		c0.69046,0,1.22373-0.26171,1.59693-0.78512c0.37319-0.52341,0.55931-1.48942,0.55931-2.89801v-1.44708h6.71946
		c0,1.76459-0.15237,3.2694-0.45613,4.51058c-0.30473,1.24118-0.81582,2.26106-1.53521,3.06158
		C90.9509,29.25529,88.6558,30,85.4764,30c-1.43782,0-2.75124-0.12316-3.94026-0.37139
		c-1.18902-0.24824-2.20542-0.77935-3.04825-1.59333c-0.8438-0.81398-1.5005-1.95895-1.97013-3.43489
		c-0.4706-1.47595-0.70493-3.4272-0.70493-5.85568c0-2.64785,0.2623-4.77181,0.78786-6.37235
		c0.52556-1.59958,1.23724-2.82729,2.13599-3.68265c0.89876-0.85488,1.95567-1.42062,3.17265-1.69676
		c1.21698-0.27518,2.5304-0.41373,3.94025-0.41373c1.65865,0,3.03379,0.22755,4.12637,0.68265
		c1.09259,0.45558,1.96338,1.09012,2.61334,1.90362c0.64899,0.81398,1.10512,1.79346,1.36839,2.93794
		c0.2623,1.14497,0.39441,2.42078,0.39441,3.82793h-6.71946C87.63264,15.02117,87.59118,14.28319,87.50825,13.71745z"/>
	<path fill="#80882B" d="M104.01615,0v29.54586h-7.46634V0H104.01615z"/>
	<path fill="#80882B" d="M113.92755,22.55292c0,1.21424,0.20636,2.02052,0.62103,2.42078s0.88525,0.59846,1.40985,0.59846
		c0.66346,0,1.18227-0.26748,1.55643-0.80629c0.37223-0.53881,0.55931-1.56446,0.55931-3.08274h6.71946
		c-0.05593,2.75946-0.76182,4.83579-2.11575,6.22707C121.32204,29.3034,119.09637,30,116.00086,30
		c-1.79752,0-3.30573-0.20013-4.52079-0.60039c-1.21698-0.39833-2.19867-1.0603-2.94507-1.98589
		c-0.74639-0.92367-1.2787-2.13021-1.59693-3.61963c-0.31823-1.48942-0.47638-3.29634-0.47638-5.42078
		c0-2.1533,0.17937-3.97322,0.5381-5.46264c0.36066-1.4899,0.92768-2.70366,1.70108-3.64176
		c0.77339-0.93762,1.76279-1.62027,2.96628-2.04843c1.20156-0.4272,2.64613-0.64128,4.33371-0.64128
		c1.49278,0,2.79848,0.17992,3.91904,0.53784c1.11863,0.35888,2.05981,0.95879,2.81971,1.80019
		c0.7599,0.84189,1.32692,1.945,1.70108,3.3103C124.81292,13.59333,125,15.29634,125,17.33804v2.27646h-11.07245V22.55292z
		 M117.59779,11.95863c-0.29123-0.55132-0.83704-0.82745-1.63937-0.82745c-0.77339,0-1.3057,0.27614-1.59693,0.82745
		c-0.2893,0.55228-0.43394,1.4211-0.43394,2.60696v0.99246h4.10419v-0.99246
		C118.03174,13.37973,117.88709,12.5109,117.59779,11.95863z"/>
</g>
</svg>
