<svg xmlns="http://www.w3.org/2000/svg" xmlns:xlink="http://www.w3.org/1999/xlink" preserveAspectRatio="xMidYMid" width="480" height="120" viewBox="0 0 480 120">
  <defs>
    <style>
      .cls-1 {
        fill: #d8d6d5;
      }

      .cls-2 {
        fill: #2fa85f;
        fill-rule: evenodd;
      }
    </style>
  </defs>
  <circle cx="60" cy="60" r="60" class="cls-1"/>
  <path d="M97.968,26.890 C117.071,36.778 118.805,65.554 115.827,80.445 C114.178,88.694 110.770,94.246 106.500,94.500 C102.173,94.758 96.552,91.502 94.118,83.063 C87.694,60.783 71.729,62.544 68.157,47.197 C64.348,30.829 83.456,19.378 97.968,26.890 Z" class="cls-2"/>
  <path d="M478.981,78.870 L478.981,82.698 L446.113,82.698 L446.113,35.574 L478.651,35.574 L478.651,39.402 L450.601,39.402 L450.601,56.430 L476.869,56.430 L476.869,60.258 L450.601,60.258 L450.601,78.870 L478.981,78.870 ZM398.515,35.574 L403.003,35.574 L403.003,78.870 L429.403,78.870 L429.403,82.698 L398.515,82.698 L398.515,35.574 ZM346.705,73.359 C348.134,75.318 349.972,76.890 352.216,78.078 C354.460,79.266 357.143,79.860 360.268,79.860 C362.468,79.860 364.448,79.464 366.208,78.672 C367.967,77.880 369.485,76.803 370.762,75.438 C372.038,74.075 373.072,72.480 373.864,70.653 C374.656,68.828 375.161,66.858 375.382,64.746 L379.870,64.746 C379.562,67.650 378.880,70.269 377.824,72.600 C376.768,74.933 375.404,76.913 373.732,78.540 C372.059,80.169 370.091,81.423 367.825,82.302 C365.558,83.182 363.040,83.622 360.268,83.622 C356.572,83.622 353.327,82.951 350.533,81.609 C347.738,80.268 345.418,78.474 343.570,76.230 C341.722,73.986 340.336,71.391 339.412,68.442 C338.488,65.495 338.026,62.393 338.026,59.136 C338.026,55.881 338.488,52.779 339.412,49.830 C340.336,46.883 341.722,44.276 343.570,42.009 C345.418,39.744 347.738,37.940 350.533,36.597 C353.327,35.256 356.572,34.584 360.268,34.584 C362.512,34.584 364.700,34.914 366.835,35.574 C368.969,36.234 370.904,37.214 372.643,38.511 C374.381,39.810 375.833,41.405 376.999,43.296 C378.164,45.189 378.902,47.367 379.210,49.830 L374.722,49.830 C374.326,48.027 373.676,46.410 372.775,44.979 C371.873,43.550 370.772,42.351 369.475,41.382 C368.177,40.415 366.746,39.678 365.185,39.171 C363.623,38.666 361.984,38.412 360.268,38.412 C357.143,38.412 354.460,39.006 352.216,40.194 C349.972,41.382 348.134,42.956 346.705,44.913 C345.275,46.872 344.219,49.083 343.537,51.546 C342.854,54.011 342.514,56.541 342.514,59.136 C342.514,61.689 342.854,64.208 343.537,66.693 C344.219,69.180 345.275,71.402 346.705,73.359 ZM314.056,35.574 L318.544,35.574 L318.544,82.698 L314.056,82.698 L314.056,35.574 ZM272.839,82.698 L256.537,82.698 L256.537,35.574 L272.839,35.574 C280.010,35.751 285.412,37.764 289.042,41.613 C292.672,45.464 294.487,51.305 294.487,59.136 C294.487,66.969 292.672,72.810 289.042,76.659 C285.412,80.510 280.010,82.523 272.839,82.698 ZM288.877,50.094 C288.128,47.586 286.963,45.540 285.379,43.956 C283.795,42.372 281.782,41.217 279.340,40.491 C276.898,39.765 273.983,39.402 270.595,39.402 L261.025,39.402 L261.025,78.870 L270.595,78.870 C273.983,78.870 276.898,78.507 279.340,77.781 C281.782,77.055 283.795,75.900 285.379,74.316 C286.963,72.732 288.128,70.686 288.877,68.178 C289.625,65.670 289.999,62.657 289.999,59.136 C289.999,55.617 289.625,52.602 288.877,50.094 ZM229.385,68.046 L207.935,68.046 L202.259,82.698 L197.507,82.698 L216.449,35.574 L221.465,35.574 L239.945,82.698 L235.127,82.698 L229.385,68.046 ZM218.759,40.062 L209.321,64.218 L227.867,64.218 L218.759,40.062 ZM176.474,81.081 C176.319,80.444 176.210,79.784 176.144,79.101 C176.078,78.420 176.022,77.748 175.979,77.088 C175.934,76.428 175.890,75.857 175.847,75.372 C175.758,73.701 175.616,72.039 175.418,70.389 C175.220,68.739 174.801,67.266 174.164,65.967 C173.525,64.670 172.601,63.624 171.392,62.832 C170.181,62.040 168.521,61.689 166.409,61.776 L149.381,61.776 L149.381,82.698 L144.893,82.698 L144.893,35.574 L166.475,35.574 C168.410,35.574 170.247,35.817 171.986,36.300 C173.723,36.785 175.241,37.521 176.540,38.511 C177.837,39.501 178.871,40.778 179.642,42.339 C180.411,43.902 180.797,45.738 180.797,47.850 C180.797,50.843 180.026,53.439 178.487,55.638 C176.946,57.839 174.659,59.247 171.623,59.862 L171.623,59.994 C173.162,60.215 174.438,60.621 175.451,61.215 C176.462,61.809 177.287,62.568 177.926,63.492 C178.563,64.416 179.025,65.484 179.312,66.693 C179.597,67.904 179.784,69.213 179.873,70.620 C179.916,71.412 179.960,72.381 180.005,73.524 C180.048,74.669 180.137,75.824 180.269,76.989 C180.401,78.156 180.609,79.256 180.896,80.289 C181.181,81.324 181.566,82.127 182.051,82.698 L177.101,82.698 C176.837,82.259 176.627,81.720 176.474,81.081 ZM173.273,55.506 C174.197,54.714 174.933,53.757 175.484,52.635 C176.033,51.513 176.309,50.226 176.309,48.774 C176.309,45.870 175.472,43.583 173.801,41.910 C172.128,40.239 169.577,39.402 166.145,39.402 L149.381,39.402 L149.381,57.948 L166.145,57.948 C167.508,57.948 168.806,57.740 170.039,57.321 C171.270,56.904 172.349,56.298 173.273,55.506 Z" class="cls-2"/>
</svg>
