<svg xmlns="http://www.w3.org/2000/svg" xmlns:xlink="http://www.w3.org/1999/xlink" viewBox="-1120 0 270 264">
  <defs>
    <style>
      .cls-1, .cls-13, .cls-5, .cls-6, .cls-8 {
        fill: none;
      }

      .cls-2 {
        clip-path: url(#clip-Table_view_0);
      }

      .cls-3 {
        fill: #e1e2e3;
      }

      .cls-4 {
        fill: #fff;
      }

      .cls-5 {
        stroke: #000;
      }

      .cls-6 {
        stroke: #e1e2e3;
      }

      .cls-7 {
        fill: #f9f9f9;
      }

      .cls-8 {
        stroke: #d6d6d6;
      }

      .cls-13, .cls-8 {
        stroke-width: 0.5px;
      }

      .cls-14, .cls-9 {
        font-size: 10px;
      }

      .cls-11, .cls-9 {
        font-family: SFUIText-Medium, SF UI Text;
        font-weight: 500;
      }

      .cls-10 {
        stroke: rgba(0,0,0,0);
      }

      .cls-11 {
        font-size: 7px;
      }

      .cls-12 {
        clip-path: url(#clip-path);
      }

      .cls-13 {
        stroke: #cbcace;
      }

      .cls-14 {
        font-family: SFUIText-Regular, SF UI Text;
      }
    </style>
    <clipPath id="clip-path">
      <rect class="cls-1" width="216" height="139"/>
    </clipPath>
    <clipPath id="clip-Table_view_0">
      <rect x="-1120" width="270" height="264"/>
    </clipPath>
  </defs>
  <g id="Table_view_0" data-name="Table view 0" class="cls-2">
    <g id="Table_view" data-name="Table view" transform="translate(-1225 8)">
      <g id="iPhone_7_w_216x384_screen" data-name="iPhone 7 w/ 216x384 screen" transform="translate(-71.5 -186)">
        <path id="Silhouette" class="cls-3" d="M248,240h-6V36A30.034,30.034,0,0,0,212,6H38A30.034,30.034,0,0,0,8,36V240H2V192H.5a.5.5,0,0,1-.5-.5v-35a.5.5,0,0,1,.5-.5H2V145.5H.5A.5.5,0,0,1,0,145V110a.5.5,0,0,1,.5-.5H2v-24H.5A.5.5,0,0,1,0,85V66.5A.5.5,0,0,1,.5,66H2V35A35.039,35.039,0,0,1,37,0H213a35.039,35.039,0,0,1,35,35v74.5h1.5a.5.5,0,0,1,.5.5v35a.5.5,0,0,1-.5.5H248V240Z" transform="translate(186.5 190)"/>
        <path id="Subtraction_8" data-name="Subtraction 8" class="cls-4" d="M234,234H0V30A30.034,30.034,0,0,1,30,0H204a30.034,30.034,0,0,1,30,30Z" transform="translate(194.499 196)"/>
        <rect id="Speaker" class="cls-3" width="38" height="4.5" rx="2" transform="translate(292.499 221.5)"/>
        <circle id="Ellipse_18" data-name="Ellipse 18" class="cls-3" cx="3" cy="3" r="3" transform="translate(308.5 204.25)"/>
        <circle id="Camera" class="cls-3" cx="4.5" cy="4.5" r="4.5" transform="translate(267.999 219.25)"/>
        <path id="Screen" class="cls-5" d="M1,0H216a1,1,0,0,1,1,1V177a0,0,0,0,1,0,0H0a0,0,0,0,1,0,0V1A1,1,0,0,1,1,0Z" transform="translate(203 252.5)"/>
        <line id="Line_26" data-name="Line 26" class="cls-6" x2="264" transform="translate(179.5 429.5)"/>
      </g>
      <g id="Navigation_bar" data-name="Navigation bar" transform="translate(-36 21)">
        <rect id="Rectangle_38" data-name="Rectangle 38" class="cls-7" width="216" height="37" transform="translate(168 46)"/>
        <line id="Line_27" data-name="Line 27" class="cls-8" x2="216" transform="translate(168 82.75)"/>
        <text id="_" data-name="$" class="cls-9" transform="translate(240 64)"><tspan x="32.682" y="10">$</tspan></text>
      </g>
      <g id="Status_bar" data-name="Status bar" transform="translate(-36 21)">
        <g id="battery" transform="translate(366 49)">
          <path id="rectangle" class="cls-10" d="M0,0H.5A.25.25,0,0,1,.75.25V2a.25.25,0,0,1-.25.25H0a0,0,0,0,1,0,0V0A0,0,0,0,1,0,0Z" transform="translate(13.5 1.875)"/>
          <path id="path" d="M.874.816h0a.607.607,0,0,0-.583.632V5.553a.609.609,0,0,0,.583.632H12.213a.607.607,0,0,0,.583-.632V1.447a.609.609,0,0,0-.583-.632ZM.874.5H12.213a.913.913,0,0,1,.874.947V5.553a.911.911,0,0,1-.874.947H.874A.913.913,0,0,1,0,5.553V1.447A.911.911,0,0,1,.874.5Z" transform="translate(0 -0.5)"/>
          <rect id="rectangle-2" data-name="rectangle" class="cls-10" width="9.748" height="4.5" rx="0.25" transform="translate(0.75 0.75)"/>
        </g>
        <path id="wifi" class="cls-10" d="M88,6.414A4.434,4.434,0,0,1,90.96,7.548l.55-.624a5.033,5.033,0,0,0-7.01,0l.549.625A4.433,4.433,0,0,1,88,6.414Zm0,1.8a2.693,2.693,0,0,1,1.778.672l.582-.661a3.475,3.475,0,0,0-4.716,0l.581.662A2.692,2.692,0,0,1,88,8.217Zm1.2,1.333a1.764,1.764,0,0,0-2.391,0L88,10.909l1.2-1.36Z" transform="translate(109.75 43.5)"/>
        <text id="_11:23_AM" data-name="11:23 AM" class="cls-11" transform="translate(258 47.5)"><tspan x="2.59" y="7">11:23 AM</tspan></text>
        <text id="_79_" data-name="79%" class="cls-11" transform="translate(328.5 47.5)"><tspan x="21.798" y="7">79%</tspan></text>
        <g id="signal_strength" data-name="signal strength" transform="translate(171.75 50.5)">
          <circle id="black_circle" data-name="black circle" class="cls-10" cx="1.5" cy="1.5" r="1.5"/>
          <circle id="black_circle-2" data-name="black circle" class="cls-10" cx="1.5" cy="1.5" r="1.5" transform="translate(4.089)"/>
          <circle id="black_circle-3" data-name="black circle" class="cls-10" cx="1.5" cy="1.5" r="1.5" transform="translate(8.178)"/>
          <path id="white_circle" data-name="white circle" class="cls-10" d="M22.5,2.727h0A1.227,1.227,0,1,0,21.273,1.5,1.227,1.227,0,0,0,22.5,2.727ZM22.5,3h0A1.5,1.5,0,1,1,24,1.5,1.5,1.5,0,0,1,22.5,3Z" transform="translate(-8.733)"/>
          <path id="white_circle-2" data-name="white circle" class="cls-10" d="M29.5,2.727h0A1.227,1.227,0,1,0,28.273,1.5,1.227,1.227,0,0,0,29.5,2.727ZM29.5,3h0A1.5,1.5,0,1,1,31,1.5,1.5,1.5,0,0,1,29.5,3Z" transform="translate(-11.644)"/>
        </g>
        <rect id="Rectangle_39" data-name="Rectangle 39" class="cls-1" width="216" height="12" transform="translate(168 46)"/>
      </g>
      <g id="Repeat_Grid_10" data-name="Repeat Grid 10" class="cls-12" transform="translate(132 104)">
        <g id="Table_view_cell" data-name="Table view cell" transform="translate(-64 -77)">
          <rect id="Rectangle_40" data-name="Rectangle 40" class="cls-4" width="216" height="24" transform="translate(64 77)"/>
          <line id="Line_28" data-name="Line 28" class="cls-13" x2="186" transform="translate(79 100.75)"/>
          <text id="Tens_of_thousands" data-name="Tens of thousands" class="cls-14" transform="translate(79 82.5)"><tspan x="0" y="10">Tens of thousands</tspan></text>
          <text id="_2" data-name="2" class="cls-14" transform="translate(239 82.5)"><tspan x="20.96" y="10">2</tspan></text>
        </g>
        <g id="Table_view_cell-2" data-name="Table view cell" transform="translate(-64 -53)">
          <rect id="Rectangle_41" data-name="Rectangle 41" class="cls-4" width="216" height="24" transform="translate(64 77)"/>
          <line id="Line_29" data-name="Line 29" class="cls-13" x2="186" transform="translate(79 100.75)"/>
          <text id="Thousands" class="cls-14" transform="translate(79 82.5)"><tspan x="0" y="10">Thousands</tspan></text>
          <text id="_8" data-name="8" class="cls-14" transform="translate(239 82.5)"><tspan x="20.613" y="10">8</tspan></text>
        </g>
        <g id="Table_view_cell-3" data-name="Table view cell" transform="translate(-64 -29)">
          <rect id="Rectangle_42" data-name="Rectangle 42" class="cls-4" width="216" height="24" transform="translate(64 77)"/>
          <line id="Line_30" data-name="Line 30" class="cls-13" x2="186" transform="translate(79 100.75)"/>
          <text id="Hundreds" class="cls-14" transform="translate(79 82.5)"><tspan x="0" y="10">Hundreds</tspan></text>
          <text id="_6" data-name="6" class="cls-14" transform="translate(239 82.5)"><tspan x="20.628" y="10">6</tspan></text>
        </g>
        <g id="Table_view_cell-4" data-name="Table view cell" transform="translate(-64 -5)">
          <rect id="Rectangle_42-2" data-name="Rectangle 42" class="cls-4" width="216" height="24" transform="translate(64 77)"/>
          <line id="Line_30-2" data-name="Line 30" class="cls-13" x2="186" transform="translate(79 100.75)"/>
          <text id="Tens" class="cls-14" transform="translate(79 82.5)"><tspan x="0" y="10">Tens</tspan></text>
          <text id="_5" data-name="5" class="cls-14" transform="translate(239 82.5)"><tspan x="20.813" y="10">5</tspan></text>
        </g>
        <g id="Table_view_cell-5" data-name="Table view cell" transform="translate(-64 19)">
          <rect id="Rectangle_42-3" data-name="Rectangle 42" class="cls-4" width="216" height="24" transform="translate(64 77)"/>
          <line id="Line_30-3" data-name="Line 30" class="cls-13" x2="186" transform="translate(79 100.75)"/>
          <text id="Ones" class="cls-14" transform="translate(79 82.5)"><tspan x="0" y="10">Ones</tspan></text>
          <text id="_7" data-name="7" class="cls-14" transform="translate(239 82.5)"><tspan x="21.302" y="10">7</tspan></text>
        </g>
        <g id="Table_view_cell-6" data-name="Table view cell" transform="translate(-64 43)">
          <rect id="Rectangle_42-4" data-name="Rectangle 42" class="cls-4" width="216" height="24" transform="translate(64 77)"/>
          <line id="Line_30-4" data-name="Line 30" class="cls-13" x2="186" transform="translate(79 100.75)"/>
          <text id="_2-2" data-name=" " class="cls-14" transform="translate(79 82.5)"><tspan x="0" y="10"> </tspan></text>
          <text id="_3" data-name=" " class="cls-14" transform="translate(239 82.5)"><tspan x="27" y="10"> </tspan></text>
        </g>
      </g>
    </g>
  </g>
</svg>
