<svg xmlns="http://www.w3.org/2000/svg" xmlns:xlink="http://www.w3.org/1999/xlink" viewBox="0 168 360 240">
  <defs>
    <style>
      .cls-1 {
        clip-path: url(#clip-hero-2);
      }

      .cls-2, .cls-3, .cls-5 {
        fill: #fff;
      }

      .cls-2 {
        font-size: 22px;
        font-family: SFUIDisplay-Semibold, SF UI Display;
        font-weight: 600;
      }

      .cls-3 {
        stroke: #000;
      }

      .cls-4, .cls-6, .cls-8 {
        fill: none;
      }

      .cls-4 {
        stroke: #7f7f7f;
      }

      .cls-5, .cls-6 {
        stroke: #95989a;
      }

      .cls-7 {
        stroke: none;
      }
    </style>
    <clipPath id="clip-hero-2">
      <rect y="168" width="360" height="240"/>
    </clipPath>
  </defs>
  <g id="hero-2" class="cls-1">
    <text id="I_believe_technology_can_be_wonderful_to_use:_apps_can_be_designed_so_they_meet_not_just_our_practical_needs_but_our_emotional_needs_too._Using_apps_can_be_satisfying_and_delightful." data-name="I believe technology can be wonderful to use: apps can be designed so they meet not just our practical needs, but our emotional needs too. — Using apps can be satisfying and delightful." class="cls-2" transform="translate(144 166)"><tspan x="0" y="21">I believe technology </tspan><tspan x="0" y="45">can be wonderful to </tspan><tspan x="0" y="69">use: apps can be </tspan><tspan x="0" y="93">designed so they </tspan><tspan x="0" y="117">meet not just our </tspan><tspan x="0" y="141">practical needs, but </tspan><tspan x="0" y="165">our emotional needs </tspan><tspan x="0" y="189">too. — Using apps can </tspan><tspan x="0" y="213">be satisfying and </tspan><tspan x="0" y="237">delightful.</tspan></text>
    <g id="iPhone_7_w_144x256_screen" data-name="iPhone 7 w/ 144x256 screen" transform="translate(-186.5 -23)">
      <path id="Subtraction_1" data-name="Subtraction 1" class="cls-3" d="M100.248,238h-81.5a17.534,17.534,0,0,1-17.67-17.354V89.25H.361A.358.358,0,0,1,0,88.9V73.313a.358.358,0,0,1,.361-.354h.721V67.291H.361A.358.358,0,0,1,0,66.938V51.354A.358.358,0,0,1,.361,51h.721V38.958H.361A.358.358,0,0,1,0,38.6V30.812a.358.358,0,0,1,.361-.354h.721v-13.1A17.534,17.534,0,0,1,18.752,0h81.5a17.534,17.534,0,0,1,17.67,17.354V51h.721a.358.358,0,0,1,.361.354V66.938a.358.358,0,0,1-.361.354h-.721V220.646A17.534,17.534,0,0,1,100.248,238ZM7.573,27.979a.716.716,0,0,0-.721.709V209.312a.716.716,0,0,0,.721.708H110.706a.716.716,0,0,0,.721-.708V28.688a.716.716,0,0,0-.721-.709Z" transform="translate(187 191.5)"/>
      <path id="Path_1" data-name="Path 1" class="cls-4" d="M1.221.5h18.03a.715.715,0,0,1,.721.708.715.715,0,0,1-.721.708H1.221A.715.715,0,0,1,.5,1.208.715.715,0,0,1,1.221.5Z" transform="translate(236.512 205.062)"/>
      <g id="Ellipse_1" data-name="Ellipse 1" class="cls-4" transform="translate(245.667 197.77)">
        <ellipse class="cls-7" cx="1.082" cy="1.063" rx="1.082" ry="1.063"/>
        <ellipse class="cls-8" cx="1.082" cy="1.063" rx="0.582" ry="0.563"/>
      </g>
      <g id="Ellipse_2" data-name="Ellipse 2" class="cls-5" transform="translate(225.834 204.145)">
        <ellipse class="cls-7" cx="2.164" cy="2.125" rx="2.164" ry="2.125"/>
        <ellipse class="cls-8" cx="2.164" cy="2.125" rx="1.664" ry="1.625"/>
      </g>
      <g id="Ellipse_3" data-name="Ellipse 3" class="cls-6" transform="translate(237.012 404.603)">
        <ellipse class="cls-7" cx="9.736" cy="9.563" rx="9.736" ry="9.563"/>
        <ellipse class="cls-8" cx="9.736" cy="9.563" rx="9.236" ry="9.063"/>
      </g>
      <g id="Ellipse_4" data-name="Ellipse 4" class="cls-6" transform="translate(238.094 405.666)">
        <ellipse class="cls-7" cx="8.655" cy="8.5" rx="8.655" ry="8.5"/>
        <ellipse class="cls-8" cx="8.655" cy="8.5" rx="8.155" ry="8"/>
      </g>
    </g>
  </g>
</svg>
