<svg xmlns="http://www.w3.org/2000/svg" width="480" height="120" viewBox="0 0 480 120">
  <defs>
    <style>
      .cls-1 {
        fill: #d8d6d5;
      }

      .cls-2 {
        fill: #787878;
        fill-rule: evenodd;
      }
    </style>
  </defs>
  <g id="Inactive">
    <circle class="cls-1" cx="60" cy="60" r="60"/>
    <path class="cls-2" d="M1057.97,242.89c19.1,9.888,20.84,38.664,17.86,53.555-1.65,8.249-5.06,13.8-9.33,14.055-4.33.258-9.95-3-12.38-11.437-6.43-22.28-22.39-20.519-25.96-35.866C1024.35,246.829,1043.46,235.378,1057.97,242.89Z" transform="translate(-960 -216)"/>
    <path id="RADICLE" class="cls-2" d="M1126.14,273.948a12.011,12.011,0,0,0,3.9-.627,9.644,9.644,0,0,0,3.23-1.815,8.8,8.8,0,0,0,2.21-2.871,8.665,8.665,0,0,0,.83-3.861,9.286,9.286,0,0,0-2.51-6.864q-2.5-2.507-7.66-2.508h-16.76v18.546h16.76Zm0.33-22.374a20.55,20.55,0,0,1,5.52.726,13.4,13.4,0,0,1,4.55,2.211,10.629,10.629,0,0,1,3.1,3.828,12.332,12.332,0,0,1,1.16,5.511,13.23,13.23,0,0,1-2.31,7.788,10.531,10.531,0,0,1-6.87,4.224v0.132a10.474,10.474,0,0,1,3.83,1.221,7.751,7.751,0,0,1,2.48,2.277,9.6,9.6,0,0,1,1.38,3.2,23.262,23.262,0,0,1,.56,3.927c0.05,0.792.09,1.761,0.13,2.9s0.14,2.3.27,3.465a20.663,20.663,0,0,0,.63,3.3,6.262,6.262,0,0,0,1.15,2.409h-4.95a6.061,6.061,0,0,1-.63-1.617,15.546,15.546,0,0,1-.33-1.98c-0.06-.681-0.12-1.353-0.16-2.013s-0.09-1.231-.13-1.716c-0.09-1.671-.23-3.333-0.43-4.983a13.65,13.65,0,0,0-1.26-4.422,7.73,7.73,0,0,0-2.77-3.135,8.367,8.367,0,0,0-4.98-1.056h-17.03V298.7h-4.49V251.574h21.58Zm61.4,28.644-9.11-24.156-9.44,24.156h18.55Zm-6.4-28.644,18.48,47.124h-4.82l-5.74-14.652h-21.45l-5.68,14.652h-4.75l18.94-47.124h5.02Zm51.37,0q10.755,0.265,16.2,6.039t5.45,17.523q0,11.749-5.45,17.523t-16.2,6.039h-16.3V251.574h16.3Zm-2.25,43.3a30.931,30.931,0,0,0,8.75-1.089,13.993,13.993,0,0,0,6.04-3.465,14.316,14.316,0,0,0,3.5-6.138,37.059,37.059,0,0,0,0-18.084,14.316,14.316,0,0,0-3.5-6.138,13.993,13.993,0,0,0-6.04-3.465,30.931,30.931,0,0,0-8.75-1.089h-9.56V294.87h9.56Zm47.95-43.3V298.7h-4.48V251.574h4.48Zm54.24,9.4a13.549,13.549,0,0,0-3.3-3.6,14.8,14.8,0,0,0-4.29-2.211,15.969,15.969,0,0,0-4.92-.759,16.96,16.96,0,0,0-8.05,1.782,15.816,15.816,0,0,0-5.51,4.719,20.116,20.116,0,0,0-3.17,6.633,28.359,28.359,0,0,0,0,15.147,20.038,20.038,0,0,0,3.17,6.666,15.8,15.8,0,0,0,5.51,4.719,16.96,16.96,0,0,0,8.05,1.782,14.32,14.32,0,0,0,5.94-1.188,13.972,13.972,0,0,0,4.55-3.234,16.45,16.45,0,0,0,3.1-4.785,19.7,19.7,0,0,0,1.52-5.907h4.49a25.368,25.368,0,0,1-2.05,7.854,19.19,19.19,0,0,1-4.09,5.94,17.364,17.364,0,0,1-5.9,3.762,20.759,20.759,0,0,1-7.56,1.32,22.27,22.27,0,0,1-9.74-2.013,20.241,20.241,0,0,1-6.96-5.379,22.931,22.931,0,0,1-4.16-7.788,32.067,32.067,0,0,1,0-18.612,23.324,23.324,0,0,1,4.16-7.821,20.1,20.1,0,0,1,6.96-5.412,23.612,23.612,0,0,1,16.31-1.023,19.063,19.063,0,0,1,5.8,2.937A17.187,17.187,0,0,1,1337,259.3a16.227,16.227,0,0,1,2.21,6.534h-4.49A14.982,14.982,0,0,0,1332.78,260.979Zm30.22-9.4v43.3h26.4V298.7h-30.89V251.574H1363Zm75.65,0V255.4H1410.6V272.43h26.27v3.828H1410.6V294.87h28.38V298.7h-32.87V251.574h32.54Z" transform="translate(-960 -216)"/>
  </g>
</svg>
