<svg xmlns="http://www.w3.org/2000/svg" xmlns:xlink="http://www.w3.org/1999/xlink" viewBox="0 0 720 120"><defs><style>.a{clip-path:url(#f);}.b,.c{fill:#fff;}.c{font-size:31px;font-family:Georgia;}.d{fill:#f7f7f7;}.e{filter:url(#c);}.f{filter:url(#a);}</style><filter id="a" x="164" y="-79" width="278" height="278" filterUnits="userSpaceOnUse"><feOffset input="SourceAlpha"/><feGaussianBlur stdDeviation="36" result="b"/><feFlood flood-opacity="0.161"/><feComposite operator="in" in2="b"/><feComposite in="SourceGraphic"/></filter><filter id="c" x="292" y="-11" width="211" height="143" filterUnits="userSpaceOnUse"><feOffset input="SourceAlpha"/><feGaussianBlur stdDeviation="18" result="d"/><feFlood flood-opacity="0.161"/><feComposite operator="in" in2="d"/><feComposite in="SourceGraphic"/></filter><clipPath id="f"><rect width="720" height="120"/></clipPath></defs><g id="e" class="a"><rect class="d" width="720" height="120"/><g transform="translate(-41 -188)"><g class="f" transform="matrix(1, 0, 0, 1, 41, 188)"><path class="b" d="M31,62A30.966,30.966,0,1,1,61.353,37.33c.019-8.238-2.779-19.319-10.734-23.436a10.834,10.834,0,0,0-5.029-1.217,11.272,11.272,0,0,0-8.686,4.06,8.844,8.844,0,0,0-1.687,7.65c.85,3.653,3.014,5.394,5.518,7.41,2.862,2.3,6.105,4.913,7.9,11.122,1.215,4.212,4.835,6.733,6.98,6.933A30.8,30.8,0,0,1,31,62Z" transform="translate(272 29)"/></g><g class="e" transform="matrix(1, 0, 0, 1, 41, 188)"><text class="c" transform="translate(346 71)"><tspan x="0" y="0">Radicle</tspan></text></g></g></g></svg>