<svg xmlns="http://www.w3.org/2000/svg" xmlns:xlink="http://www.w3.org/1999/xlink" viewBox="350 200 250 100">
  <defs>
    <style>
      .cls-1 {
        clip-path: url(#clip-logo--ms);
      }

      .cls-2 {
        fill: #737373;
      }

      .cls-3 {
        fill: #7a7a7a;
      }

      .cls-4 {
        fill: #5c5c5c;
      }

      .cls-5 {
        fill: #787878;
      }

      .cls-6 {
        fill: #999;
      }
    </style>
    <clipPath id="clip-logo--ms">
      <rect x="350" y="200" width="250" height="100"/>
    </clipPath>
  </defs>
  <g id="logo--ms" class="cls-1">
    <g id="Microsoft_logo__2012_" data-name="Microsoft_logo_(2012)" transform="translate(350 223)">
      <g id="Group_1" data-name="Group 1" transform="translate(69.382 8.321)">
        <path id="Path_1" data-name="Path 1" class="cls-2" d="M186.477,44.94l-1.49,4.223h-.124a29.98,29.98,0,0,0-1.449-4.14l-7.99-20.078H167.6v32h5.175V37.2c0-1.242,0-2.649-.041-4.388-.041-.869-.124-1.532-.166-2.028h.124a19.338,19.338,0,0,0,.745,2.732l9.6,23.348h3.643l9.521-23.555a25.078,25.078,0,0,0,.621-2.525h.124c-.124,2.36-.207,4.471-.248,5.754V56.821h5.506V24.862h-7.534Zm20.947-11.053h5.382V56.821h-5.382Zm2.732-9.687a3.225,3.225,0,0,0-2.277.911,3.052,3.052,0,0,0,0,4.43,3.19,3.19,0,0,0,2.277.869,3.3,3.3,0,0,0,2.277-.869,2.912,2.912,0,0,0,.952-2.194,3.069,3.069,0,0,0-.952-2.235,3.02,3.02,0,0,0-2.277-.911m21.734,9.48a15.011,15.011,0,0,0-3.022-.331,12.988,12.988,0,0,0-6.541,1.615,10.812,10.812,0,0,0-4.305,4.43,14.079,14.079,0,0,0-1.49,6.624,12.286,12.286,0,0,0,1.449,5.92,9.923,9.923,0,0,0,4.057,4.1,11.943,11.943,0,0,0,5.92,1.449,13.011,13.011,0,0,0,6.5-1.532l.041-.041V50.943l-.207.166a9.251,9.251,0,0,1-2.608,1.366,7.978,7.978,0,0,1-2.567.5,6.35,6.35,0,0,1-5.051-1.987,7.635,7.635,0,0,1-1.863-5.423,7.825,7.825,0,0,1,1.9-5.589,6.644,6.644,0,0,1,5.051-2.07,8.809,8.809,0,0,1,5.133,1.739l.207.166V34.549l-.041-.041a12.482,12.482,0,0,0-2.567-.828m17.76-.166a5.679,5.679,0,0,0-3.643,1.283,7.724,7.724,0,0,0-2.07,3.1H243.9V33.887h-5.382V56.821H243.9V45.106a7.9,7.9,0,0,1,1.325-4.844A4.149,4.149,0,0,1,248.7,38.4a13.277,13.277,0,0,1,1.615.207,4.247,4.247,0,0,1,1.283.538l.207.166V33.928l-.124-.041a4.091,4.091,0,0,0-2.028-.373M264.3,33.39c-3.767,0-6.789,1.118-8.9,3.312-2.153,2.194-3.188,5.216-3.188,9.025a11.8,11.8,0,0,0,3.146,8.569,11.4,11.4,0,0,0,8.4,3.146c3.684,0,6.624-1.118,8.735-3.353a12.289,12.289,0,0,0,3.188-8.9c0-3.643-.994-6.541-3.022-8.652-1.946-2.111-4.8-3.146-8.362-3.146m4.305,17.635a5.426,5.426,0,0,1-4.512,1.9,5.654,5.654,0,0,1-4.637-1.987,8.177,8.177,0,0,1-1.656-5.506,8.692,8.692,0,0,1,1.656-5.63,5.693,5.693,0,0,1,4.6-1.987,5.5,5.5,0,0,1,4.471,1.9,8.491,8.491,0,0,1,1.656,5.589c-.083,2.484-.538,4.43-1.573,5.713m19.084-7.617a12.892,12.892,0,0,1-3.27-1.7,2.351,2.351,0,0,1-.621-1.739,1.923,1.923,0,0,1,.869-1.656,3.988,3.988,0,0,1,2.36-.621,10.716,10.716,0,0,1,2.774.414,7.139,7.139,0,0,1,2.4,1.118l.207.166V34.342l-.124-.041a14.938,14.938,0,0,0-2.442-.7,16.6,16.6,0,0,0-2.649-.248,9.591,9.591,0,0,0-6.334,1.987,6.12,6.12,0,0,0-2.442,5.051,6.572,6.572,0,0,0,.538,2.815,6.274,6.274,0,0,0,1.656,2.153,14.425,14.425,0,0,0,3.312,1.863c1.242.538,2.194.952,2.774,1.283a5.619,5.619,0,0,1,1.242.994,2.354,2.354,0,0,1,.331,1.283c0,1.532-1.159,2.277-3.519,2.277a9.291,9.291,0,0,1-2.981-.538,11.517,11.517,0,0,1-3.022-1.532l-.207-.166v5.257l.124.041a16.058,16.058,0,0,0,2.9.911,18.483,18.483,0,0,0,3.1.373,10.081,10.081,0,0,0,6.665-1.987,6.339,6.339,0,0,0,2.525-5.216,5.8,5.8,0,0,0-1.325-3.933,16.785,16.785,0,0,0-4.844-2.856M308.062,33.39c-3.767,0-6.789,1.118-8.9,3.312s-3.188,5.216-3.188,9.025A11.8,11.8,0,0,0,299.12,54.3a11.4,11.4,0,0,0,8.4,3.146c3.684,0,6.624-1.118,8.735-3.353a12.289,12.289,0,0,0,3.188-8.9c0-3.643-.994-6.541-3.022-8.652-1.946-2.111-4.8-3.146-8.362-3.146m4.264,17.635a5.426,5.426,0,0,1-4.512,1.9,5.6,5.6,0,0,1-4.637-1.987,8.177,8.177,0,0,1-1.656-5.506,8.692,8.692,0,0,1,1.656-5.63,5.693,5.693,0,0,1,4.6-1.987,5.561,5.561,0,0,1,4.471,1.9,8.491,8.491,0,0,1,1.656,5.589,9.032,9.032,0,0,1-1.573,5.713" transform="translate(-167.6 -22.503)"/>
        <path id="Path_2" data-name="Path 2" class="cls-2" d="M564.05,35.914v-4.43h-5.423V24.7l-.166.041-5.133,1.532-.124.041v5.175H545.09v-2.9A4.539,4.539,0,0,1,546,25.564a3.214,3.214,0,0,1,2.525-.994,6.04,6.04,0,0,1,2.4.538l.207.124V20.555l-.124-.041a10.352,10.352,0,0,0-7.327.58,7.18,7.18,0,0,0-2.939,2.939,8.47,8.47,0,0,0-1.076,4.264v3.188H535.9v4.388h3.767V54.419h5.423v-18.5H553.2v11.8c0,4.844,2.277,7.286,6.831,7.286a14.187,14.187,0,0,0,2.277-.248,7.45,7.45,0,0,0,1.7-.538l.041-.041v-4.43l-.207.166a3.5,3.5,0,0,1-1.118.5,3.789,3.789,0,0,1-1.076.166,2.868,2.868,0,0,1-2.36-.869,4.483,4.483,0,0,1-.745-2.939V35.914h5.506Z" transform="translate(-383.433 -20.1)"/>
      </g>
      <path id="Path_3" data-name="Path 3" class="cls-3" d="M0,0H25.377V25.377H0Z"/>
      <path id="Path_4" data-name="Path 4" class="cls-4" d="M67.7,0H93.077V25.377H67.7Z" transform="translate(-39.674)"/>
      <path id="Path_5" data-name="Path 5" class="cls-5" d="M0,67.7H25.377V93.077H0Z" transform="translate(0 -39.674)"/>
      <path id="Path_6" data-name="Path 6" class="cls-6" d="M67.7,67.7H93.077V93.077H67.7Z" transform="translate(-39.674 -39.674)"/>
    </g>
  </g>
</svg>
