<svg xmlns="http://www.w3.org/2000/svg" xmlns:xlink="http://www.w3.org/1999/xlink" viewBox="0 0 192 48">
  <defs>
    <style>
      .cls-1 {
        clip-path: url(#clip-logo);
      }

      .cls-2, .cls-3 {
        fill: #c91919;
      }

      .cls-2 {
        font-size: 36px;
        font-family: Georgia-Bold, Georgia;
        font-weight: 700;
        letter-spacing: -0.01em;
      }

      .cls-3 {
        fill-rule: evenodd;
      }

      .cls-4, .cls-6 {
        fill: none;
      }

      .cls-4 {
        stroke: #c91919;
        stroke-width: 2px;
      }

      .cls-5 {
        stroke: none;
      }
    </style>
    <clipPath id="clip-logo">
      <rect width="192" height="48"/>
    </clipPath>
  </defs>
  <g id="logo" class="cls-1">
    <text id="Radicle" class="cls-2" transform="translate(56 35)"><tspan x="0" y="0">Radicle</tspan></text>
    <path id="tetrahedron" class="cls-3" d="M14.348,26.8a.524.524,0,0,1-.163-.16C14.067,26.482.13,2.339.057,2.165A.489.489,0,0,1,0,1.959c0-.075,0-.092.013-.123.031-.06.081-.07.162-.033C.2,1.815,3.368,3.641,7.212,5.86c5.356,3.092,7,4.048,7.057,4.091a.937.937,0,0,1,.293.512c.014.084.015.732.013,8.2l0,8.107-.028.04c-.025.036-.032.04-.07.043s-.05,0-.125-.054Zm1.123.028a.2.2,0,0,1-.033-.063c-.007-.024-.01-2.592-.01-8.137,0-7.909,0-8.1.017-8.189a.95.95,0,0,1,.293-.491c.046-.038,2.078-1.215,7.044-4.083,3.839-2.216,7-4.041,7.031-4.056a.164.164,0,0,1,.14-.016c.036.019.05.075.044.171a.486.486,0,0,1-.05.2c-.066.162-14.024,24.338-14.136,24.485a.526.526,0,0,1-.159.155c-.067.045-.089.054-.12.054a.065.065,0,0,1-.062-.028Zm-.606-17.6a.823.823,0,0,1-.149-.039c-.062-.023-1.805-1.025-7.08-4.07C3.789,2.892.623,1.062.6,1.046a.17.17,0,0,1-.068-.1A.154.154,0,0,1,.558.9C.577.869.6.853.669.821A.582.582,0,0,1,.892.762C1.026.743,1.132.743,15,.743s13.975,0,14.111.018a.5.5,0,0,1,.227.064c.088.045.113.067.127.109s-.03.087-.08.121c-.022.015-3.185,1.843-7.028,4.062C17,8.212,15.349,9.16,15.285,9.184a.884.884,0,0,1-.419.039Zm0,0" transform="translate(9.05 14.257)"/>
    <g id="Ellipse_2" data-name="Ellipse 2" class="cls-4">
      <circle class="cls-5" cx="24" cy="24" r="24"/>
      <circle class="cls-6" cx="24" cy="24" r="23"/>
    </g>
  </g>
</svg>
