<svg xmlns="http://www.w3.org/2000/svg" width="480" height="120" viewBox="0 0 480 120">
  <defs>
    <style>
      .cls-1 {
        fill: #d8d6d5;
      }

      .cls-2 {
        fill: #2fa85f;
        fill-rule: evenodd;
      }
    </style>
  </defs>
  <g id="Active">
    <circle class="cls-1" cx="60" cy="60" r="60"/>
    <path class="cls-2" d="M1057.97,26.89c19.1,9.888,20.84,38.664,17.86,53.555-1.65,8.249-5.06,13.8-9.33,14.055-4.33.258-9.95-3-12.38-11.437-6.43-22.28-22.39-20.519-25.96-35.866C1024.35,30.829,1043.46,19.378,1057.97,26.89Z" transform="translate(-960)"/>
    <path id="RADICLE" class="cls-2" d="M1126.14,57.948a12.019,12.019,0,0,0,3.9-.627,9.654,9.654,0,0,0,3.23-1.815,8.8,8.8,0,0,0,2.21-2.871,8.665,8.665,0,0,0,.83-3.861,9.285,9.285,0,0,0-2.51-6.864q-2.5-2.508-7.66-2.508h-16.76V57.948h16.76Zm0.33-22.374a20.522,20.522,0,0,1,5.52.726,13.389,13.389,0,0,1,4.55,2.211,10.627,10.627,0,0,1,3.1,3.828,12.331,12.331,0,0,1,1.16,5.511,13.232,13.232,0,0,1-2.31,7.788,10.534,10.534,0,0,1-6.87,4.224v0.132a10.47,10.47,0,0,1,3.83,1.221,7.751,7.751,0,0,1,2.48,2.277,9.6,9.6,0,0,1,1.38,3.2,23.248,23.248,0,0,1,.56,3.927c0.05,0.792.09,1.76,0.13,2.9s0.14,2.3.27,3.465a20.686,20.686,0,0,0,.63,3.3,6.27,6.27,0,0,0,1.15,2.409h-4.95a6.075,6.075,0,0,1-.63-1.617,15.564,15.564,0,0,1-.33-1.98c-0.06-.682-0.12-1.353-0.16-2.013s-0.09-1.231-.13-1.716c-0.09-1.672-.23-3.333-0.43-4.983a13.645,13.645,0,0,0-1.26-4.422,7.728,7.728,0,0,0-2.77-3.135,8.363,8.363,0,0,0-4.98-1.056h-17.03V82.7h-4.49V35.574h21.58Zm61.4,28.644-9.11-24.156-9.44,24.156h18.55Zm-6.4-28.644L1199.95,82.7h-4.82l-5.74-14.652h-21.45L1162.26,82.7h-4.75l18.94-47.124h5.02Zm51.37,0q10.755,0.265,16.2,6.039t5.45,17.523q0,11.749-5.45,17.523t-16.2,6.039h-16.3V35.574h16.3Zm-2.25,43.3a30.934,30.934,0,0,0,8.75-1.089,13.994,13.994,0,0,0,6.04-3.465,14.315,14.315,0,0,0,3.5-6.138,32.2,32.2,0,0,0,1.12-9.042,32.2,32.2,0,0,0-1.12-9.042,14.316,14.316,0,0,0-3.5-6.138,14,14,0,0,0-6.04-3.465,30.931,30.931,0,0,0-8.75-1.089h-9.56V78.87h9.56Zm47.95-43.3V82.7h-4.48V35.574h4.48Zm54.24,9.405a13.535,13.535,0,0,0-3.3-3.6,14.779,14.779,0,0,0-4.29-2.211,15.96,15.96,0,0,0-4.92-.759,16.958,16.958,0,0,0-8.05,1.782,15.811,15.811,0,0,0-5.51,4.719,20.1,20.1,0,0,0-3.17,6.633,28.358,28.358,0,0,0,0,15.147,20.046,20.046,0,0,0,3.17,6.666,15.8,15.8,0,0,0,5.51,4.719,16.958,16.958,0,0,0,8.05,1.782,14.32,14.32,0,0,0,5.94-1.188,13.98,13.98,0,0,0,4.55-3.234,16.461,16.461,0,0,0,3.1-4.785,19.7,19.7,0,0,0,1.52-5.907h4.49a25.373,25.373,0,0,1-2.05,7.854,19.2,19.2,0,0,1-4.09,5.94,17.382,17.382,0,0,1-5.9,3.762,20.765,20.765,0,0,1-7.56,1.32,22.275,22.275,0,0,1-9.74-2.013,20.247,20.247,0,0,1-6.96-5.379,22.936,22.936,0,0,1-4.16-7.788,32.067,32.067,0,0,1,0-18.612,23.316,23.316,0,0,1,4.16-7.821,20.086,20.086,0,0,1,6.96-5.412,23.613,23.613,0,0,1,16.31-1.023,19.056,19.056,0,0,1,5.8,2.937A17.173,17.173,0,0,1,1337,43.3a16.219,16.219,0,0,1,2.21,6.534h-4.49A14.971,14.971,0,0,0,1332.78,44.979ZM1363,35.574v43.3h26.4V82.7h-30.89V35.574H1363Zm75.65,0V39.4H1410.6V56.43h26.27v3.828H1410.6V78.87h28.38V82.7h-32.87V35.574h32.54Z" transform="translate(-960)"/>
  </g>
</svg>
