<svg xmlns="http://www.w3.org/2000/svg" width="336" height="72" viewBox="0 0 336 72">
  <defs>
    <style>
      .cls-1 {
        fill: #fefefe;
      }

      .cls-1, .cls-2 {
        fill-rule: evenodd;
      }

      .cls-2 {
        fill: #fff;
      }
    </style>
  </defs>
  <g id="Dark">
    <path id="RADICLE_copy" data-name="RADICLE copy" class="cls-1" d="M523.405,430.146a8.376,8.376,0,0,0,2.714-.437,6.761,6.761,0,0,0,2.254-1.265,6.2,6.2,0,0,0,1.541-2,6.043,6.043,0,0,0,.575-2.691,6.467,6.467,0,0,0-1.748-4.784q-1.749-1.748-5.336-1.748H511.721v12.926h11.684Zm0.23-15.594a14.275,14.275,0,0,1,3.841.506,9.294,9.294,0,0,1,3.174,1.541,7.436,7.436,0,0,1,2.162,2.668,8.6,8.6,0,0,1,.8,3.841,9.224,9.224,0,0,1-1.61,5.428,7.34,7.34,0,0,1-4.784,2.944v0.092a7.307,7.307,0,0,1,2.668.851,5.368,5.368,0,0,1,1.725,1.587,6.555,6.555,0,0,1,.966,2.231,16.452,16.452,0,0,1,.391,2.737q0.045,0.828.092,2.024t0.184,2.415a14.814,14.814,0,0,0,.437,2.3,4.374,4.374,0,0,0,.8,1.679h-3.45a4,4,0,0,1-.437-1.127,9.834,9.834,0,0,1-.23-1.38q-0.069-.713-0.115-1.4t-0.092-1.2q-0.093-1.748-.3-3.473a9.526,9.526,0,0,0-.874-3.082,5.436,5.436,0,0,0-1.932-2.185,5.835,5.835,0,0,0-3.473-.736H511.721V447.4h-3.128V414.552h15.042Zm46.028,19.964-6.348-16.836-6.578,16.836h12.926ZM565.2,414.552l12.88,32.844h-3.358l-4-10.212h-14.95L551.815,447.4H548.5l13.2-32.844h3.5Zm39.113,0q7.5,0.184,11.293,4.209t3.8,12.213q0,8.189-3.8,12.213T604.314,447.4H592.952V414.552h11.362Zm-1.564,30.176a21.547,21.547,0,0,0,6.1-.759,9.758,9.758,0,0,0,4.209-2.415,9.94,9.94,0,0,0,2.438-4.278,25.784,25.784,0,0,0,0-12.6,9.94,9.94,0,0,0-2.438-4.278,9.758,9.758,0,0,0-4.209-2.415,21.547,21.547,0,0,0-6.1-.759h-6.67v27.508h6.67Zm36.74-30.176V447.4h-3.128V414.552h3.128Zm41.123,6.555a9.272,9.272,0,0,0-2.3-2.507,10.286,10.286,0,0,0-2.99-1.541,11.072,11.072,0,0,0-3.427-.529,11.844,11.844,0,0,0-5.612,1.242,11.12,11.12,0,0,0-3.841,3.289,14.164,14.164,0,0,0-2.208,4.623,19.9,19.9,0,0,0,0,10.557,14.118,14.118,0,0,0,2.208,4.646,11.109,11.109,0,0,0,3.841,3.289,11.844,11.844,0,0,0,5.612,1.242,9.983,9.983,0,0,0,4.14-.828,9.814,9.814,0,0,0,3.174-2.254A11.568,11.568,0,0,0,681.372,439a13.916,13.916,0,0,0,1.058-4.117h3.128a17.73,17.73,0,0,1-1.426,5.474,13.432,13.432,0,0,1-2.852,4.14,12.116,12.116,0,0,1-4.117,2.622,14.43,14.43,0,0,1-5.267.92,15.491,15.491,0,0,1-6.785-1.4,14.074,14.074,0,0,1-4.853-3.749,15.934,15.934,0,0,1-2.9-5.428,22.257,22.257,0,0,1,0-12.972,16.2,16.2,0,0,1,2.9-5.451,13.965,13.965,0,0,1,4.853-3.772,16.441,16.441,0,0,1,11.362-.713,13.279,13.279,0,0,1,4.048,2.047,11.953,11.953,0,0,1,3.036,3.335,11.237,11.237,0,0,1,1.541,4.554H681.97A10.521,10.521,0,0,0,680.613,421.107Zm24.4-6.555v30.176h18.4V447.4H701.883V414.552h3.128Zm56.037,0v2.668H741.5v11.868h18.308v2.668H741.5v12.972h19.78V447.4H738.37V414.552h22.678Z" transform="translate(-428 -395)"/>
    <path id="Shape_1_copy_3" data-name="Shape 1 copy 3" class="cls-2" d="M460,400a31,31,0,1,1-31,31A31,31,0,0,1,460,400Zm19.62,13.894c9.871,5.109,11.8,21.011,10.262,28.7-0.853,4.263-2.613,7.131-4.82,7.263-2.235.133-6.173-2.583-7.431-6.943-3.319-11.512-11.568-10.6-13.414-18.532C462.249,415.929,472.122,410.013,479.62,413.894Z" transform="translate(-428 -395)"/>
  </g>
</svg>
