<svg xmlns="http://www.w3.org/2000/svg" xmlns:xlink="http://www.w3.org/1999/xlink" viewBox="594 -350 250 250">
  <defs>
    <style>
      .cls-1 {
        clip-path: url(#clip-Logo);
      }

      .cls-2 {
        fill: rgba(255,255,255,0);
      }

      .cls-3 {
        fill: #1258b9;
      }
    </style>
    <clipPath id="clip-Logo">
      <rect x="594" y="-350" width="250" height="250"/>
    </clipPath>
  </defs>
  <g id="Logo" class="cls-1">
    <g id="Logo-2" data-name="Logo" transform="translate(429 -506)">
      <rect id="Area" class="cls-2" width="250" height="250" transform="translate(165 156)"/>
      <g id="tetrahedron" transform="translate(190 1146.894)">
        <path id="path3073" class="cls-3" d="M95.654-753.195a3.491,3.491,0,0,1-1.085-1.067C93.78-755.307.864-916.26.382-917.417a3.259,3.259,0,0,1-.367-1.377c-.031-.5-.019-.614.085-.817.205-.4.539-.47,1.078-.218.17.079,21.275,12.249,46.9,27.043,35.708,20.615,46.7,26.987,47.044,27.276a6.245,6.245,0,0,1,1.953,3.413c.093.562.1,4.878.084,54.658l-.017,54.048-.188.268c-.169.24-.216.27-.463.285s-.334-.022-.836-.357Zm7.49.184a1.326,1.326,0,0,1-.221-.417c-.044-.157-.064-17.281-.064-54.246,0-52.728,0-54.03.116-54.594a6.332,6.332,0,0,1,1.953-3.27c.308-.253,13.85-8.1,46.963-27.22,25.592-14.776,46.683-26.943,46.87-27.039a1.093,1.093,0,0,1,.935-.109c.241.129.336.5.294,1.14a3.244,3.244,0,0,1-.335,1.311c-.442,1.078-93.49,162.253-94.237,163.234a3.506,3.506,0,0,1-1.057,1.035c-.446.3-.592.363-.8.363a.431.431,0,0,1-.415-.187ZM99.107-870.364a5.478,5.478,0,0,1-1-.261c-.415-.154-12.036-6.835-47.2-27.133-25.655-14.811-46.762-27.015-46.9-27.121a1.133,1.133,0,0,1-.453-.675,1.025,1.025,0,0,1,.162-.315c.127-.188.286-.3.743-.51a3.879,3.879,0,0,1,1.484-.394c.9-.121,1.6-.122,94.063-.122,92.439,0,93.167,0,94.071.123a3.341,3.341,0,0,1,1.514.429c.586.3.755.444.845.726.06.188-.2.582-.533.809-.146.1-21.231,12.285-46.857,27.079-35.722,20.623-46.722,26.946-47.148,27.1a5.891,5.891,0,0,1-2.793.261Z" transform="translate(0)"/>
      </g>
    </g>
  </g>
</svg>
