<svg xmlns="http://www.w3.org/2000/svg" xmlns:xlink="http://www.w3.org/1999/xlink" viewBox="700 200 250 100">
  <defs>
    <style>
      .cls-1 {
        clip-path: url(#clip-logo--bmo);
      }

      .cls-2 {
        fill: #737373;
      }

      .cls-3 {
        fill: #fff;
      }

      .cls-4 {
        fill: #8c8c8c;
      }
    </style>
    <clipPath id="clip-logo--bmo">
      <rect x="700" y="200" width="250" height="100"/>
    </clipPath>
  </defs>
  <g id="logo--bmo" class="cls-1">
    <g id="Bank_of_Montreal_Logo" transform="translate(700 220)">
      <path id="Path_28" data-name="Path 28" class="cls-2" d="M0,0H250V60.527H0Z"/>
      <path id="Path_7" data-name="Path 7" class="cls-3" d="M102.613,31.324h-1.45v4.969h1.08c1.923,0,2.9-.781,2.9-2.561,0-1.657-.656-2.408-2.532-2.408m-.117-4.771a12.889,12.889,0,0,0-1.333.046v4.172h1.4c1.535,0,2.059-.752,2.059-2.087C104.621,27.26,104.132,26.553,102.5,26.553Zm.743,10.291c-1.923,0-3.864-.063-5.787,0v-.505c.388,0,1.568-.047,1.568-.567V27.105c0-.535-1.163-.582-1.568-.566l-.018-.506c2.008.062,4.031,0,6.041,0,1.905,0,3.39.444,3.39,2.422,0,1.61-1.179,2.317-2.8,2.515v.062c2.008.123,3.395.845,3.395,2.822C107.457,36.092,105.38,36.844,103.238,36.844Z" transform="translate(0.218 0.058)"/>
      <path id="Path_8" data-name="Path 8" class="cls-3" d="M114.029,32.773c-1.6.138-2.9.245-2.9,2.056,0,.736.254,1.47,1.216,1.47,1.333,0,1.689-1.1,1.689-2.116m1.249,2.683c-.625,0-1.233-.092-1.233-.781a3.512,3.512,0,0,1-2.515.9c-1.636,0-2.464-.752-2.464-2.237,0-2.532,3.089-2.363,4.962-2.487V31.1c0-.83-.423-1.289-1.368-1.289-1.079,0-1.4.491-1.4,1.4,0,.4-.338.476-.69.476-.54.016-.929-.015-.929-.628,0-1.441,1.671-1.749,2.938-1.749,1.973,0,3.39.262,3.39,2.331v3.514c0,1.039.1,1.181,1.267,1.194v.491C116.577,36.837,115.918,36.866,115.279,36.866Z" transform="translate(0.244 0.066)"/>
      <path id="Path_9" data-name="Path 9" class="cls-3" d="M123.475,36.837v-.476c.421-.016,1.23-.063,1.23-.6V31.821c0-.951-.184-1.749-1.415-1.749-1.418,0-1.926,1.106-1.926,2.225v3.467c0,.489.846.581,1.233.581l.018.476c-1.468-.061-3.073-.047-4.539.016v-.476c.438-.016,1.333-.029,1.333-.6V30.547c0-.55-.9-.581-1.333-.6v-.475c1.08,0,2.161.015,3.238-.03v1.086h.035a3.408,3.408,0,0,1,2.783-1.227c1.838,0,2.532.814,2.532,2.422v4.036c0,.534.894.581,1.316.581v.491c-1.467-.045-3.035-.061-4.5,0" transform="translate(0.264 0.066)"/>
      <path id="Path_10" data-name="Path 10" class="cls-3" d="M134.522,36.829v-.475c.135,0,.606.016.558-.2s-.4-.521-.593-.766c-.47-.581-.928-1.167-1.417-1.735-.016-.015-.219-.321-.219-.321l-.676.6v1.887c0,.614.861.536,1.316.536v.491c-1.5-.063-3.087-.063-4.588,0v-.491c.4,0,1.316-.061,1.316-.581V26.707c0-.552-.862-.582-1.3-.6l-.016-.475c1.08,0,2.194.029,3.273-.03l-.016,7.621a31.54,31.54,0,0,0,2.7-3.145c0-.121-.624-.152-.742-.152v-.443h3.341v.428h-.2a2.79,2.79,0,0,0-1.4.247,20.535,20.535,0,0,0-1.789,1.9l3.087,3.681a1.933,1.933,0,0,0,1.4.628v.476c-1.333-.077-2.718-.017-4.034-.017" transform="translate(0.288 0.057)"/>
      <path id="Path_11" data-name="Path 11" class="cls-3" d="M146.684,29.813c-1.991,0-1.906,1.993-1.906,3.3s-.085,3.39,1.906,3.39,1.907-2.089,1.907-3.39.083-3.3-1.907-3.3m0,7.176c-2.666,0-4.048-1.441-4.048-3.8s1.364-3.881,4.048-3.881c2.7,0,4.033,1.518,4.033,3.881C150.717,35.533,149.332,36.989,146.684,36.989Z" transform="translate(0.319 0.066)"/>
      <path id="Path_12" data-name="Path 12" class="cls-3" d="M157.514,27.751c-1.433,0-.135-1.733-1.552-1.733-.9,0-.93.8-.93,1.409v2.057h1.738v.536h-1.738v5.752c0,.6,1.014.581,1.454.581l-.018.491c-1.554-.047-3.175-.063-4.726,0v-.491c.439-.014,1.333-.014,1.333-.581V30.02h-1.316v-.536h1.316V28.3c0-1.794,1.014-2.76,3-2.76,1.078,0,2.378.338,2.378,1.516,0,.646-.338.693-.944.693" transform="translate(0.339 0.057)"/>
      <path id="Path_13" data-name="Path 13" class="cls-3" d="M172.25,36.844v-.505c.4,0,1.7,0,1.7-.567V27.5l-4.539,9.445h-.388l-4.455-9.414v8.235c0,.567,1.283.567,1.7.567v.505c-1.3-.047-2.683-.063-3.982,0v-.505c.421,0,1.567,0,1.567-.567V27.1c0-.535-1.165-.566-1.567-.566l.018-.506c1.23.062,2.563.062,3.8,0l3.915,8.128,3.931-8.128c1.216.062,2.516.062,3.731,0v.506c-.4,0-1.6.015-1.6.566v8.666c0,.567,1.181.567,1.6.567v.505c-1.655-.062-3.78-.062-5.434,0" transform="translate(0.363 0.058)"/>
      <path id="Path_14" data-name="Path 14" class="cls-3" d="M182.658,29.813c-1.99,0-1.907,1.993-1.907,3.3s-.083,3.39,1.907,3.39,1.908-2.089,1.908-3.39.084-3.3-1.908-3.3m0,7.176c-2.666,0-4.05-1.441-4.05-3.8s1.366-3.881,4.05-3.881c2.7,0,4.032,1.518,4.032,3.881C186.691,35.533,185.309,36.989,182.658,36.989Z" transform="translate(0.4 0.066)"/>
      <path id="Path_15" data-name="Path 15" class="cls-3" d="M193.068,36.837v-.476c.419-.016,1.23-.063,1.23-.6V31.821c0-.951-.184-1.749-1.416-1.749-1.416,0-1.921,1.106-1.921,2.225v3.467c0,.489.842.581,1.23.581l.018.476c-1.468-.061-3.071-.047-4.54.016v-.476c.439-.016,1.333-.029,1.333-.6V30.547c0-.55-.894-.581-1.333-.6v-.475c1.081,0,2.161.015,3.241-.03v1.086h.034a3.408,3.408,0,0,1,2.783-1.227c1.84,0,2.531.814,2.531,2.422v4.036c0,.534.894.581,1.316.581v.491c-1.469-.045-3.037-.061-4.505,0" transform="translate(0.42 0.066)"/>
      <path id="Path_16" data-name="Path 16" class="cls-3" d="M201.11,36.978c-1.568,0-2.008-.736-2.008-2.054V30.016h-1.216V29.48H199.1V27.914l1.942-.168v1.733h1.787v.536h-1.787v5.169c0,.583.15,1.027.877,1.027a2.173,2.173,0,0,0,1.027-.444l.356.474a4.311,4.311,0,0,1-2.194.737" transform="translate(0.443 0.062)"/>
      <path id="Path_17" data-name="Path 17" class="cls-3" d="M210.409,31.683c-1.483,0-.3-1.626-1.316-1.626-1.1,0-1.368,1.872-1.368,2.592v3.115c0,.581.981.581,1.419.581v.491c-1.554-.047-3.153-.063-4.708,0v-.491c.421,0,1.332-.031,1.332-.581V30.533c0-.551-.894-.581-1.332-.6l-.018-.458c1.08,0,2.178.015,3.257-.03V30.61l.035-.015a2.323,2.323,0,0,1,2.023-1.289,1.385,1.385,0,0,1,1.571,1.427c0,.583-.17.95-.9.95" transform="translate(0.457 0.066)"/>
      <path id="Path_18" data-name="Path 18" class="cls-3" d="M217.665,31.944c0-1.013-.2-2.147-1.588-2.147-1.552,0-1.652,1.595-1.67,2.652h3.257m-3.257.538v.353c0,1.366.135,3.085,2.093,3.085a2.178,2.178,0,0,0,2.411-1.994h.68c-.374,1.885-1.32,2.561-3.412,2.561-2.783,0-3.915-1.58-3.915-3.958,0-2.284,1.385-3.726,3.95-3.726,2.5,0,3.576,1.382,3.576,3.543v.138h-5.383Z" transform="translate(0.475 0.066)"/>
      <path id="Path_19" data-name="Path 19" class="cls-3" d="M226.167,32.773c-1.6.138-2.9.245-2.9,2.056,0,.736.255,1.47,1.216,1.47,1.335,0,1.689-1.1,1.689-2.116m1.245,2.683c-.622,0-1.23-.092-1.23-.781a3.513,3.513,0,0,1-2.514.9c-1.638,0-2.464-.752-2.464-2.237,0-2.532,3.088-2.363,4.961-2.487V31.1c0-.83-.422-1.289-1.367-1.289-1.08,0-1.4.491-1.4,1.4,0,.4-.339.476-.693.476-.54.016-.928-.015-.928-.628,0-1.441,1.67-1.749,2.937-1.749,1.975,0,3.391.262,3.391,2.331v3.514c0,1.039.1,1.181,1.269,1.194v.491C228.715,36.837,228.057,36.866,227.413,36.866Z" transform="translate(0.495 0.066)"/>
      <path id="Path_20" data-name="Path 20" class="cls-3" d="M230.415,36.845v-.491c.421,0,1.335-.047,1.335-.581v-9.08c0-.537-.914-.582-1.335-.582l.018-.475c1.08,0,2.194.029,3.273-.03V35.773c0,.534.928.581,1.351.581v.491c-1.518-.063-3.121-.063-4.642,0" transform="translate(0.515 0.057)"/>
      <path id="Path_21" data-name="Path 21" class="cls-4" d="M75.729,14.958A15.272,15.272,0,1,0,91,30.23,15.273,15.273,0,0,0,75.729,14.958" transform="translate(0.135 0.033)"/>
      <rect id="Rectangle_2" data-name="Rectangle 2" class="cls-3" width="14.428" height="4.555" transform="translate(68.6 32.343)"/>
      <path id="Path_22" data-name="Path 22" class="cls-3" d="M75.192,25.487a.654.654,0,0,0,.518.315.62.62,0,0,0,.513-.315s2.41-3.168,2.537-3.32a.6.6,0,0,1,1.044,0l3.072,3.89V32.3l-3.051-3.918a.64.64,0,0,0-1.128,0c-.121.158-2.464,3.26-2.464,3.26-.364.46-.714.46-1.073,0,0,0-2.4-3.118-2.506-3.26a.638.638,0,0,0-1.123,0L68.448,32.3l0-6.222s2.94-3.685,3.127-3.908a.616.616,0,0,1,1.058,0l2.561,3.324" transform="translate(0.153 0.049)"/>
      <path id="Path_23" data-name="Path 23" class="cls-3" d="M22.248,33.732c0,1.72-.577,2.537-2.584,2.537h-1.25V31.457h1.332c1.824,0,2.5.642,2.5,2.275m2.688.175c0-2-1.633-2.722-3.612-2.768v-.074c1.682-.137,3.067-.843,3.067-2.545,0-1.894-1.566-2.247-3.316-2.247-2.106,0-4.577.056-6.677,0V26.8c.442-.029,1.52.029,1.52.589v8.32c0,.538-1.106.612-1.52.612v.511c2.032-.053,4.439,0,6.477,0C23.023,36.832,24.936,36.107,24.936,33.907Zm-3.114-5.071c0,1.327-.581,2.063-2.109,2.063h-1.3v-4.07c.167-.015.721-.029.885-.029h.447C21.305,26.8,21.822,27.494,21.822,28.836Z" transform="translate(0.032 0.059)"/>
      <path id="Path_24" data-name="Path 24" class="cls-3" d="M38.5,36.816c-.943,0-1.885-.012-2.828.016v-.524c.429,0,1.619-.023,1.619-.6V27.955h-.033l-4.329,9.018h-.446l-4.213-9.018h-.033v7.753c0,.589,1.239.6,1.686.6l.017.524c-1.177-.037-2.78-.064-3.94,0v-.524c.448,0,1.522-.035,1.522-.6V27.4c0-.553-1.108-.6-1.522-.6l-.016-.526c1.343.056,2.779.056,4.119,0l3.6,7.553,3.669-7.54c1.29.061,2.68.043,3.97-.013V26.8c-.428,0-1.553.029-1.553.6v8.311c0,.575,1.108.6,1.553.6v.524c-.942-.027-1.9-.016-2.843-.016" transform="translate(0.058 0.059)"/>
      <path id="Path_25" data-name="Path 25" class="cls-3" d="M54.03,31.54c0-3.494-2.135-5.454-5.985-5.454s-6,1.942-6,5.454,2.134,5.468,6,5.468,5.985-1.955,5.985-5.468m-2.8,0c0,2.063-.2,4.945-3.19,4.945S44.837,33.6,44.837,31.54s.216-4.927,3.207-4.927C51.018,26.613,51.235,29.492,51.235,31.54Z" transform="translate(0.094 0.058)"/>
      <path id="Path_26" data-name="Path 26" class="cls-3" d="M92.443,23.053a1.564,1.564,0,1,1,1.54-1.563,1.55,1.55,0,0,1-1.54,1.563m0-3.38a1.817,1.817,0,1,0,1.816,1.817A1.817,1.817,0,0,0,92.443,19.673Z" transform="translate(0.203 0.044)"/>
      <path id="Path_27" data-name="Path 27" class="cls-3" d="M92.038,21.386v-.724h.438c.37,0,.537.109.537.362s-.167.361-.537.361h-.438m1.245-.352c0-.4-.235-.588-.69-.588h-.808V22.53h.253V21.6h.438l.588.925h.3l-.621-.925A.581.581,0,0,0,93.282,21.033Z" transform="translate(0.205 0.046)"/>
    </g>
  </g>
</svg>
