<svg xmlns="http://www.w3.org/2000/svg" xmlns:xlink="http://www.w3.org/1999/xlink" viewBox="0 0 720 120"><defs><style>.a{clip-path:url(#b);}.b{fill:#7f7f7f;}.c{fill:#fff;}.d{fill:#3f3f3f;font-size:31px;font-family:Georgia;}.e{fill:#f7f7f7;}</style><clipPath id="b"><rect width="720" height="120"/></clipPath></defs><g id="a" class="a"><rect class="e" width="720" height="120"/><path class="b" d="M956,454a31,31,0,1,1-31,31,31,31,0,0,1,31-31Z" transform="translate(-653 -425)"/><path class="c" d="M975.62,467.894c9.871,5.109,11.8,21.011,10.262,28.706-.853,4.262-2.613,7.13-4.82,7.262-2.235.133-6.173-2.583-7.431-6.943-3.319-11.512-11.568-10.6-13.414-18.532C958.249,469.929,968.122,464.013,975.62,467.894Z" transform="translate(-653 -425)"/><text class="d" transform="translate(346 71)"><tspan x="0" y="0">Radicle</tspan></text></g></svg>