<svg xmlns="http://www.w3.org/2000/svg" xmlns:xlink="http://www.w3.org/1999/xlink" viewBox="0 350 905 200">
  <defs>
    <style>
      .cls-1 {
        clip-path: url(#clip-logo--text);
      }

      .cls-2 {
        fill: rgba(255,255,255,0);
      }

      .cls-3 {
        stroke: rgba(0,0,0,0);
      }
    </style>
    <clipPath id="clip-logo--text">
      <rect y="350" width="905" height="200"/>
    </clipPath>
  </defs>
  <g id="logo--text" class="cls-1">
    <g id="Logo" transform="translate(-165 194)">
      <rect id="Area" class="cls-2" width="950" height="250" transform="translate(165 156)"/>
      <g id="tetrahedron" transform="translate(165 1096.894)">
        <path id="path3073" d="M95.654-753.195a3.491,3.491,0,0,1-1.085-1.067C93.78-755.307.864-916.26.382-917.417a3.259,3.259,0,0,1-.367-1.377c-.031-.5-.019-.614.085-.817.205-.4.539-.47,1.078-.218.17.079,21.275,12.249,46.9,27.043,35.708,20.615,46.7,26.987,47.044,27.276a6.245,6.245,0,0,1,1.953,3.413c.093.562.1,4.878.084,54.658l-.017,54.048-.188.268c-.169.24-.216.27-.463.285s-.334-.022-.836-.357Zm7.49.184a1.326,1.326,0,0,1-.221-.417c-.044-.157-.064-17.281-.064-54.246,0-52.728,0-54.03.116-54.594a6.332,6.332,0,0,1,1.953-3.27c.308-.253,13.85-8.1,46.963-27.22,25.592-14.776,46.683-26.943,46.87-27.039a1.093,1.093,0,0,1,.935-.109c.241.129.336.5.294,1.14a3.244,3.244,0,0,1-.335,1.311c-.442,1.078-93.49,162.253-94.237,163.234a3.506,3.506,0,0,1-1.057,1.035c-.446.3-.592.363-.8.363a.431.431,0,0,1-.415-.187ZM99.107-870.364a5.478,5.478,0,0,1-1-.261c-.415-.154-12.036-6.835-47.2-27.133-25.655-14.811-46.762-27.015-46.9-27.121a1.133,1.133,0,0,1-.453-.675,1.025,1.025,0,0,1,.162-.315c.127-.188.286-.3.743-.51a3.879,3.879,0,0,1,1.484-.394c.9-.121,1.6-.122,94.063-.122,92.439,0,93.167,0,94.071.123a3.341,3.341,0,0,1,1.514.429c.586.3.755.444.845.726.06.188-.2.582-.533.809-.146.1-21.231,12.285-46.857,27.079-35.722,20.623-46.722,26.946-47.148,27.1a5.891,5.891,0,0,1-2.793.261Z" transform="translate(0)"/>
      </g>
      <path id="Path_1" data-name="Path 1" class="cls-3" d="M48.111-125.209l.1,53.191q1.295.1,2.839.149t4.433.05q16.535,0,24.4-6.674t7.869-20.619q0-12.75-7.77-19.424t-22.412-6.674ZM6.275-136.863H68.332q23.508,0,35.71,8.865t12.2,26q0,14.045-8.865,22.86t-26.2,12a47.052,47.052,0,0,1,12.8,4.831,27.077,27.077,0,0,1,8.616,7.819q4.283,6.176,8.566,20.32,2.092,6.674,3.287,9.861,3.088,8.068,8.218,11.206t15.888,3.138h2.59V-.2Q135.469.6,130.339,1t-9.612.4a41.226,41.226,0,0,1-11.8-1.644A28.673,28.673,0,0,1,99.51-4.881q-9.264-7.172-14.543-23.607-.7-2.291-1.1-3.586Q78.094-49.506,71.42-54.835T51.6-60.164H48.111v45.92L51.4-11.057l12.451,1.1V0H6.275V-9.961l12.053-1.1,3.287-3.187V-123.018l-3.287-2.889-12.053-1ZM204.749-20.021v-33.27q-20.121,4.482-27.492,9.762a16.729,16.729,0,0,0-7.371,14.344q0,7.072,4.084,11.206t11.057,4.134a29.891,29.891,0,0,0,8.815-1.544A69.182,69.182,0,0,0,204.749-20.021Zm0,8.367a91.436,91.436,0,0,1-18.826,10.26,46.034,46.034,0,0,1-16.236,3.188q-11.754,0-19.225-7.421T142.991-24.7q0-14.344,10.957-22.113t51.1-16.834v-6.076q0-11.057-4.682-16.137t-14.742-5.08a36.975,36.975,0,0,0-4.582.3q-2.391.3-5.18.9v19.125H157.036q-4.881,0-7.122-1.793t-2.241-5.678q0-9.562,12.85-16.635T192.1-101.8q21.018,0,29.584,8.068t8.566,28.09V-12.85l2.689,2.889,10.857,1V0H207.439Zm114.308-7.77V-87.557a75.186,75.186,0,0,0-8.268-2.241,34.718,34.718,0,0,0-6.873-.747A25.491,25.491,0,0,0,282.55-79.986q-8.019,10.559-8.019,28.389,0,16.934,7.271,26.5t20.121,9.563a35.286,35.286,0,0,0,7.62-.946A71.543,71.543,0,0,0,319.057-19.424Zm0-113.555H304.115v-8.168l30.381-9.562h9.463v137.66l2.789,3.287,10.459.8V0h-38.15V-11.455A82.988,82.988,0,0,1,301.924-1.395a39.749,39.749,0,0,1-15.141,3.188q-17.332,0-28.438-13.7T247.238-47.314q0-24.4,14.593-39.545t38-15.141a88.545,88.545,0,0,1,9.164.5q4.781.5,10.061,1.494ZM394.513-101.2h9.861v88.154l2.988,3.088,11.455.8V0h-53.49V-9.164l11.057-.8,2.889-3.088V-83.473H365.825v-8.168Zm-2.191-46.518a14.931,14.931,0,0,1,10.957,4.233,14.424,14.424,0,0,1,4.283,10.708,15.229,15.229,0,0,1-4.233,11.106,14.459,14.459,0,0,1-10.808,4.333,14.468,14.468,0,0,1-10.658-4.283,14.589,14.589,0,0,1-4.283-10.758,15.144,15.144,0,0,1,4.233-10.957A14.021,14.021,0,0,1,392.321-147.721ZM514.1-9.164a93.617,93.617,0,0,1-19.523,8.118,70.51,70.51,0,0,1-19.025,2.64q-21.914,0-35.411-13.846t-13.5-36.258q0-23.209,14.792-38.051t37.8-14.842q15.041,0,24.354,6.226T512.9-79.189a13.221,13.221,0,0,1-4.134,10.011,14.628,14.628,0,0,1-10.509,3.935,20.861,20.861,0,0,1-6.425-.946,19.457,19.457,0,0,1-5.628-2.938V-90.744a27.305,27.305,0,0,0-2.938-.548,18.99,18.99,0,0,0-2.241-.149q-11.355,0-19.025,10.708T454.33-53.49q0,18.129,8.467,28.588t23.01,10.459a44.266,44.266,0,0,0,13.746-2.341A67.089,67.089,0,0,0,514.1-23.707ZM519.228,0V-8.965l11.854-1.2,2.889-2.889v-119.93H519.228v-8.168l30.779-9.562h8.965V-13.447l3.088,3.287,11.854,1.2V0ZM648.174-62.854v-2.191q0-12.451-4.582-19.075t-13.148-6.624A18.011,18.011,0,0,0,615.4-83.323q-5.678,7.421-6.176,20.47ZM674.969-25.3V-10.16A93.346,93.346,0,0,1,653.852-1.2a78.643,78.643,0,0,1-21.316,2.988q-22.811,0-36.606-14.045t-13.8-37.154q0-23.209,14.095-37.9T632.535-102q20.121,0,31.277,12.1t11.156,34.017V-52H608.231v.6q0,17.432,8.766,27.393T641.1-14.045a51.78,51.78,0,0,0,16.436-2.789A81.957,81.957,0,0,0,674.969-25.3Z" transform="translate(383 307)"/>
    </g>
  </g>
</svg>
