<svg xmlns="http://www.w3.org/2000/svg" xmlns:xlink="http://www.w3.org/1999/xlink" viewBox="1250 0 250 250">
  <defs>
    <style>
      .cls-1 {
        clip-path: url(#clip-rd-logo);
      }

      .cls-2 {
        fill: rgba(255,255,255,0);
      }

      .cls-3 {
        fill: #710080;
      }
    </style>
    <clipPath id="clip-rd-logo">
      <rect x="1250" width="250" height="250"/>
    </clipPath>
  </defs>
  <g id="rd-logo" class="cls-1">
    <g id="Logo" transform="translate(1085 -156)">
      <rect id="Area" class="cls-2" width="250" height="250" transform="translate(165 156)"/>
      <path id="Subtraction_1" data-name="Subtraction 1" class="cls-3" d="M-1578,708a101.115,101.115,0,0,1-101-101,101.115,101.115,0,0,1,101-101,101.114,101.114,0,0,1,101,101A101.115,101.115,0,0,1-1578,708Zm0-142.42-29.29,12.129-12.13,29.29,12.13,29.29L-1578,648.42l29.291-12.13L-1536.58,607l-12.129-29.29L-1578,565.581Zm0,79.619-36.329-26.4,13.881-42.7h44.9l13.88,42.7L-1578,645.2Z" transform="translate(1868.178 -326)"/>
    </g>
  </g>
</svg>
