<svg xmlns="http://www.w3.org/2000/svg" xmlns:xlink="http://www.w3.org/1999/xlink" viewBox="0 1300 950 250">
  <defs>
    <style>
      .cls-1 {
        clip-path: url(#clip-ri-logo-full);
      }

      .cls-2 {
        fill: rgba(255,255,255,0);
      }

      .cls-3, .cls-4, .cls-5 {
        fill: #1258b9;
      }

      .cls-4 {
        font-size: 199px;
        font-family: Charter-Bold, Charter;
        font-weight: 700;
        letter-spacing: -0.01em;
      }

      .cls-5 {
        font-size: 80px;
        font-family: Charter-Black, Charter;
        font-weight: 800;
        letter-spacing: 0.07em;
      }
    </style>
    <clipPath id="clip-ri-logo-full">
      <rect y="1300" width="950" height="250"/>
    </clipPath>
  </defs>
  <g id="ri-logo-full" class="cls-1">
    <g id="Logo" transform="translate(-189 1119.023)">
      <rect id="Area" class="cls-2" width="926" height="250" transform="translate(189 180.977)"/>
      <g id="Logo-2" data-name="Logo" transform="translate(0 1)">
        <rect id="Area-2" data-name="Area" class="cls-2" width="226" height="226" transform="translate(189 180)"/>
        <g id="tetrahedron" transform="translate(190 218.5)">
          <path id="path3073" class="cls-3" d="M93.412-757.266a3.41,3.41,0,0,1-1.059-1.042c-.771-1.021-91.51-158.2-91.98-159.331a3.183,3.183,0,0,1-.359-1.345c-.03-.487-.018-.6.083-.8.2-.393.526-.459,1.052-.213.166.078,20.777,11.962,45.8,26.409,34.871,20.132,45.6,26.354,45.942,26.637a6.1,6.1,0,0,1,1.907,3.333c.091.548.1,4.764.082,53.377l-.017,52.781-.183.262c-.165.235-.211.263-.453.278s-.326-.022-.817-.349Zm7.314.18a1.294,1.294,0,0,1-.216-.407c-.043-.154-.062-16.875-.063-52.975,0-51.493,0-52.764.114-53.315a6.184,6.184,0,0,1,1.907-3.194c.3-.247,13.526-7.912,45.862-26.582,24.992-14.429,45.589-26.312,45.772-26.405a1.068,1.068,0,0,1,.914-.107c.235.126.328.486.287,1.114a3.167,3.167,0,0,1-.328,1.28c-.432,1.053-91.3,158.451-92.029,159.409a3.424,3.424,0,0,1-1.032,1.011c-.436.29-.578.354-.784.355a.421.421,0,0,1-.405-.183Zm-3.943-114.6a5.348,5.348,0,0,1-.973-.255c-.406-.151-11.754-6.675-46.091-26.5C24.666-912.9,4.054-924.823,3.915-924.926a1.107,1.107,0,0,1-.442-.659,1,1,0,0,1,.158-.307c.125-.183.279-.289.726-.5a3.788,3.788,0,0,1,1.449-.385c.875-.118,1.563-.119,91.858-.119,90.272,0,90.984,0,91.866.12a3.263,3.263,0,0,1,1.478.419c.572.291.738.434.825.709.058.184-.2.568-.52.79-.142.1-20.733,12-45.758,26.444-34.885,20.14-45.627,26.315-46.043,26.468a5.752,5.752,0,0,1-2.728.255Z" transform="translate(0 926.894)"/>
        </g>
      </g>
      <text id="Radicle" class="cls-4" transform="translate(408 351.977)"><tspan x="0" y="0">Radicle</tspan></text>
      <text id="INFOSYSTEMS" class="cls-5" transform="translate(408 425)"><tspan x="0" y="0">INFOSYSTEMS</tspan></text>
    </g>
  </g>
</svg>
